# xmcd
#
# Track frame offsets:
# 150
# 19215
# 35465
# 56125
# 69687
# 88627
# 108215
# 124138
# 149786
# 163599
# 183403
# 205094
#
# Disc length: 3019 seconds
#
#
# Revision: 0
# Processed by: cddbd v1.5.1PL2 Copyright (c) Steve Scherf et al.
# Submitted via: Nero 7, 2, 0, 3 
#
DISCID=af0bc90c
DTITLE=ema lou harris - all the road running
DYEAR=2006
DGENRE=Country
TTITLE0=all the road running
TTITLE1=all the road running
TTITLE2=all the road running
TTITLE3=all the road running
TTITLE4=all the road running
TTITLE5=all the road running
TTITLE6=all the road running
TTITLE7=all the road running
TTITLE8=all the road running
TTITLE9=all the road running
TTITLE10=all the road running
TTITLE11=all the road running
EXTD=
EXTT0=
EXTT1=
EXTT2=
EXTT3=
EXTT4=
EXTT5=
EXTT6=
EXTT7=
EXTT8=
EXTT9=
EXTT10=
EXTT11=
PLAYORDER=
